<svg width="45" height="45" viewBox="0 0 45 45" fill="none" xmlns="http://www.w3.org/2000/svg">
<path d="M44.5624 18.0934H42.75V18H22.5V27H35.2159C33.3608 32.2391 28.3759 36 22.5 36C15.0446 36 9 29.9554 9 22.5C9 15.0446 15.0446 9 22.5 9C25.9414 9 29.0723 10.2982 31.4561 12.4189L37.8203 6.05475C33.8018 2.30962 28.4265 0 22.5 0C10.0744 0 0 10.0744 0 22.5C0 34.9256 10.0744 45 22.5 45C34.9256 45 45 34.9256 45 22.5C45 20.9914 44.8447 19.5187 44.5624 18.0934Z" fill="#FFC107"/>
<path d="M2.59436 12.0274L9.98673 17.4487C11.987 12.4965 16.8312 9 22.5001 9C25.9415 9 29.0724 10.2982 31.4562 12.4189L37.8204 6.05475C33.8019 2.30962 28.4266 0 22.5001 0C13.8579 0 6.36311 4.87912 2.59436 12.0274Z" fill="#FF3D00"/>
<path d="M22.4999 45C28.3116 45 33.5924 42.7759 37.585 39.159L30.6212 33.2663C28.3622 34.9774 25.5542 36 22.4999 36C16.6476 36 11.6785 32.2684 9.80649 27.0608L2.46924 32.7139C6.19299 40.0005 13.7552 45 22.4999 45Z" fill="#4CAF50"/>
<path d="M44.5624 18.0934H42.75V18H22.5V27H35.2159C34.3249 29.5166 32.706 31.6867 30.618 33.2674C30.6191 33.2662 30.6202 33.2663 30.6214 33.2651L37.5851 39.1579C37.0924 39.6056 45 33.75 45 22.5C45 20.9914 44.8447 19.5188 44.5624 18.0934Z" fill="#1976D2"/>
</svg>
