<svg width="200" height="200" viewBox="0 0 200 200" fill="none" xmlns="http://www.w3.org/2000/svg">
<g filter="url(#filter0_d_122_215)">
<circle cx="100" cy="100" r="98" fill="#149F4C"/>
</g>
<g clip-path="url(#clip0_122_215)">
<path d="M145.015 66.7476C145.015 81.6185 126.475 125.474 115.845 149.397C115.124 151.02 114.07 152.372 112.792 153.313C111.515 154.255 110.06 154.751 108.578 154.751C107.096 154.751 105.641 154.255 104.363 153.313C103.086 152.372 102.032 151.02 101.311 149.397C90.6809 125.474 72.1409 81.6185 72.1409 66.7476C72.1409 45.9002 88.4542 29 108.578 29C128.701 29 145.015 45.9002 145.015 66.7476Z" fill="white"/>
<path d="M108.749 91.1978C119.708 91.1978 128.592 80.059 128.592 66.3187C128.592 52.5783 119.708 41.4396 108.749 41.4396C97.7896 41.4396 88.9053 52.5783 88.9053 66.3187C88.9053 80.059 97.7896 91.1978 108.749 91.1978Z" fill="#149F4C"/>
<path d="M25.9429 88.8297C32.5071 88.8297 37.8284 82.158 37.8284 73.9281C37.8284 65.6982 32.5071 59.0265 25.9429 59.0265C19.3787 59.0265 14.0574 65.6982 14.0574 73.9281C14.0574 82.158 19.3787 88.8297 25.9429 88.8297Z" fill="#FFCB06"/>
<path d="M108.578 184C124.467 184 137.348 182.753 137.348 181.215C137.348 179.678 124.467 178.431 108.578 178.431C92.6884 178.431 79.8074 179.678 79.8074 181.215C79.8074 182.753 92.6884 184 108.578 184Z" fill="white"/>
<path opacity="0.4" d="M23.5228 87.1798C24.1277 82.5062 21.5962 78.1027 17.8686 77.3443C14.1409 76.5859 10.6287 79.7598 10.0238 84.4333C9.41885 89.1069 11.9503 93.5104 15.678 94.2689C19.4056 95.0273 22.9179 91.8534 23.5228 87.1798Z" fill="white"/>
<path d="M176.75 130.031C122.902 104.723 57.2269 129.396 19.3086 179.866C19.093 180.149 18.8775 180.437 18.6688 180.724H18.0906C18.289 180.437 18.4943 180.149 18.6961 179.866C57.4014 125.557 122.204 103.912 176.75 130.031Z" fill="#3F3D56"/>
<path d="M191.465 138.425C186.706 135.243 181.791 132.439 176.75 130.031C181.804 132.399 186.721 135.204 191.465 138.425Z" fill="#3F3D56"/>
<path opacity="0.4" d="M161.994 113.175C166.136 113.175 169.494 108.965 169.494 103.772C169.494 98.5795 166.136 94.3698 161.994 94.3698C157.852 94.3698 154.495 98.5795 154.495 103.772C154.495 108.965 157.852 113.175 161.994 113.175Z" fill="white"/>
<path d="M162.829 176.096C163.409 178.782 165.394 180.446 165.394 180.446C165.394 180.446 166.439 177.754 165.86 175.068C165.28 172.382 163.295 170.719 163.295 170.719C163.295 170.719 162.25 173.41 162.829 176.096Z" fill="#3F3D56"/>
<path d="M163.681 175.519C165.271 177.46 165.466 180.443 165.466 180.443C165.466 180.443 163.081 180.28 161.491 178.339C159.901 176.398 159.707 173.415 159.707 173.415C159.707 173.415 162.091 173.578 163.681 175.519Z" fill="white"/>
<path d="M3.14958 138.749V142.893L2.98535 143.116V138.706C3.04009 138.719 3.09485 138.736 3.14958 138.749Z" fill="#3F3D56"/>
<path d="M13.6804 179.864C13.6325 179.963 13.5811 180.061 13.5298 180.16H2.98535V138.955L3.14958 138.749L4.54889 140.744V137.827H8.99659V147.084L13.4888 153.479L13.5298 153.539C13.5846 153.754 13.6359 153.968 13.6872 154.183C13.6876 154.186 13.6888 154.189 13.6906 154.191C14.3643 156.895 14.9172 159.643 15.3465 162.423C16.325 168.982 16.1779 174.995 13.6804 179.864Z" fill="#CCCCCC"/>
<path d="M6.68764 161.525H3.85669V164.483H6.68764V161.525Z" fill="#3F3D56"/>
<path d="M6.68764 166.849H3.85669V169.807H6.68764V166.849Z" fill="#3F3D56"/>
<path d="M93.8922 155.906L92.4768 152.948L105.688 138.751C115.455 132.857 127.228 134.557 139.659 138.751V142.891L127.392 159.455L113.237 163.004L93.8922 155.906Z" fill="#3F3D56"/>
<path d="M145.507 147.082C147.853 143.81 148.179 140.699 145.507 137.827H141.059V140.745L139.659 138.751L128.336 152.948L126.448 155.314L124.089 167.145L128.336 180.159H150.039V153.54L145.507 147.082Z" fill="#CCCCCC"/>
<path d="M92.4769 152.948H128.336V180.159H92.4769C88.1387 174.275 90.3924 163.549 92.4769 152.948Z" fill="#F2F2F2"/>
<path d="M123.381 161.525H115.832V169.807H123.381V161.525Z" fill="#3F3D56"/>
<path d="M112.765 161.23H106.16V180.159H112.765V161.23Z" fill="#CCCCCC"/>
<path d="M98.6106 164.188V161.23H95.7798V164.188H98.3745H98.6106Z" fill="#3F3D56"/>
<path d="M98.3745 166.554H95.7798V169.512H98.6106V166.554H98.3745Z" fill="#3F3D56"/>
<path d="M103.329 161.23H100.498V164.187H103.329V161.23Z" fill="#3F3D56"/>
<path d="M103.329 166.554H100.498V169.511H103.329V166.554Z" fill="#3F3D56"/>
<path d="M138.48 164.483V161.525H135.649V164.483H138.244H138.48Z" fill="#3F3D56"/>
<path d="M138.244 166.85H135.649V169.807H138.48V166.85H138.244Z" fill="#3F3D56"/>
<path d="M143.198 161.525H140.367V164.483H143.198V161.525Z" fill="#3F3D56"/>
<path d="M143.198 166.849H140.367V169.807H143.198V166.849Z" fill="#3F3D56"/>
<path d="M30.0431 106.215L27.6841 103.849L40.8951 89.0599H74.3945V102.074L52.6908 120.413L30.0431 106.215Z" fill="#3F3D56"/>
<path d="M80.5022 97.3556V89.3553H76.0545V91.3147L74.3944 89.0598L63.5424 103.849L59.2962 107.398L52.7119 167.71L62.6416 180.159H85.7183C89.2542 157.859 92.058 134.95 85.7183 104.44L80.5022 97.3556Z" fill="#CCCCCC"/>
<path d="M27.684 103.849H63.5427V180.159H27.684C23.7601 150.513 21.8437 123.021 27.684 103.849Z" fill="#F2F2F2"/>
<path d="M48.2083 161.525H41.6028V180.159H48.2083V161.525Z" fill="#CCCCCC"/>
<path d="M34.5254 166.85V163.892H31.6946V166.85H34.2896H34.5254Z" fill="#3F3D56"/>
<path d="M34.2896 169.216H31.6946V172.174H34.5254V169.216H34.2896Z" fill="#3F3D56"/>
<path d="M39.2435 163.892H36.4126V166.849H39.2435V163.892Z" fill="#3F3D56"/>
<path d="M53.6344 169.216H51.0393V172.174H53.8701V169.216H53.6344Z" fill="#3F3D56"/>
<path d="M58.5885 163.892H55.7576V166.849H58.5885V163.892Z" fill="#3F3D56"/>
<path d="M58.5885 169.216H55.7576V172.173H58.5885V169.216Z" fill="#3F3D56"/>
<path d="M73.6867 107.694V104.736H70.856V107.694H73.451H73.6867Z" fill="#3F3D56"/>
<path d="M73.451 110.06H70.856V113.018H73.6867V110.06H73.451Z" fill="#3F3D56"/>
<path d="M78.4052 104.736H75.5742V107.694H78.4052V104.736Z" fill="#3F3D56"/>
<path d="M78.4052 110.06H75.5742V113.018H78.4052V110.06Z" fill="#3F3D56"/>
<path d="M73.6867 124.258V121.3H70.856V124.258H73.451H73.6867Z" fill="#3F3D56"/>
<path d="M73.451 126.624H70.856V129.582H73.6867V126.624H73.451Z" fill="#3F3D56"/>
<path d="M78.4052 121.3H75.5742V124.257H78.4052V121.3Z" fill="#3F3D56"/>
<path d="M78.4052 126.624H75.5742V129.581H78.4052V126.624Z" fill="#3F3D56"/>
<path d="M73.6867 140.821V137.863H70.856V140.821H73.451H73.6867Z" fill="#3F3D56"/>
<path d="M73.451 143.187H70.856V146.145H73.6867V143.187H73.451Z" fill="#3F3D56"/>
<path d="M78.4052 137.863H75.5742V140.821H78.4052V137.863Z" fill="#3F3D56"/>
<path d="M78.4052 143.187H75.5742V146.145H78.4052V143.187Z" fill="#3F3D56"/>
<path d="M73.6867 157.385V154.427H70.856V157.385H73.451H73.6867Z" fill="#3F3D56"/>
<path d="M73.451 159.751H70.856V162.708H73.6867V159.751H73.451Z" fill="#3F3D56"/>
<path d="M78.4052 154.427H75.5742V157.385H78.4052V154.427Z" fill="#3F3D56"/>
<path d="M78.4052 159.751H75.5742V162.709H78.4052V159.751Z" fill="#3F3D56"/>
<path d="M31.6943 107.694H59.0602V114.793C50.2886 111.758 41.1415 111.975 31.6943 114.793V107.694Z" fill="#3F3D56"/>
<path d="M31.6943 121.891C40.2355 125.046 49.3574 125.046 59.0602 121.891V128.99H31.6943V121.891Z" fill="#3F3D56"/>
<path d="M31.6943 136.089H59.0602V143.187C49.734 139.454 40.6024 139.278 31.6943 143.187V136.089Z" fill="#3F3D56"/>
<path d="M31.6943 150.286C40.6192 154.598 49.7493 154.419 59.0602 150.286V157.385H31.6943V150.286Z" fill="#3F3D56"/>
<path d="M178.772 137.953H198V149.569L196.282 150.243L190.569 152.479L181.605 149.875L172.651 147.274L167.923 145.901L165.562 144.806C167.526 141.427 171.098 138.77 178.772 137.953Z" fill="#3F3D56"/>
<path d="M198 144.806V180.16H165.562C165.552 180.138 165.545 180.118 165.535 180.096V180.094C165.527 180.07 165.518 180.046 165.508 180.023C165.001 178.745 164.547 177.471 164.146 176.199C160.742 165.442 161.111 154.969 165.562 144.806H198Z" fill="#F2F2F2"/>
<path d="M186.087 161.525H179.481V180.159H186.087V161.525Z" fill="#CCCCCC"/>
<path d="M172.404 166.85V163.892H169.573V166.85H172.168H172.404Z" fill="#3F3D56"/>
<path d="M172.168 169.216H169.573V172.174H172.404V169.216H172.168Z" fill="#3F3D56"/>
<path d="M177.122 163.892H174.292V166.849H177.122V163.892Z" fill="#3F3D56"/>
<path d="M177.122 169.216H174.292V172.173H177.122V169.216Z" fill="#3F3D56"/>
<path d="M191.749 166.85V163.892H188.918V166.85H191.513H191.749Z" fill="#3F3D56"/>
<path d="M191.513 169.216H188.918V172.174H191.749V169.216H191.513Z" fill="#3F3D56"/>
<path d="M196.467 163.892H193.636V166.849H196.467V163.892Z" fill="#3F3D56"/>
<path d="M196.467 169.216H193.636V172.173H196.467V169.216Z" fill="#3F3D56"/>
<path d="M172.652 124.227H176.719C180.73 124.227 184.576 126.225 187.412 129.78C190.248 133.336 191.842 138.159 191.842 143.187H172.652V124.227Z" fill="#3F3D56"/>
<path d="M49.4851 72.7529H53.5516C57.5624 72.7529 61.4089 74.7505 64.245 78.3063C67.0811 81.862 68.6743 86.6846 68.6743 91.7132H49.4851V72.7529Z" fill="#3F3D56"/>
<path d="M114.49 120.366H118.556C122.567 120.366 126.414 122.364 129.25 125.92C132.086 129.475 133.679 134.298 133.679 139.327H114.49V120.366Z" fill="#3F3D56"/>
<path d="M191.842 150.286H172.652V157.385H191.842V150.286Z" fill="#3F3D56"/>
<path d="M198 179.866H2.98535V180.724H198V179.866Z" fill="#3F3D56"/>
<path d="M20.9714 145.977H20.2871V179.864H20.9714V145.977Z" fill="#3F3D56"/>
<path d="M27.2863 150.296C27.3298 162.145 20.6805 171.789 20.6805 171.789C20.6805 171.789 12.1651 162.017 13.9169 150.373C15.6787 138.662 21.1697 128.929 20.5227 128.879C20.5227 128.879 27.2427 138.446 27.2863 150.296Z" fill="white"/>
<path d="M89.3976 145.977H88.7134V179.864H89.3976V145.977Z" fill="#3F3D56"/>
<path d="M95.7126 150.296C96.3294 162.12 89.1068 171.789 89.1068 171.789C89.1068 171.789 82.3868 162.222 82.3432 150.373C82.2997 138.523 88.949 128.879 88.949 128.879C88.3008 132.127 95.2136 140.728 95.7126 150.296Z" fill="white"/>
<path d="M44.9419 90.8928L74.6642 89.0698L87.1325 102.118L84.9281 104.613L65.1841 104.056L44.9419 90.8928Z" fill="#3F3D56"/>
<path d="M15.2849 151.446L13.6838 153.261L13.4888 153.479L13.0816 153.943L2.98534 153.66V138.706C2.65689 138.616 2.32845 138.53 2 138.449L2.8177 138.398L2.98534 138.573L4.54888 140.208L8.99658 144.866L13.9643 150.065L15.2849 151.446Z" fill="#3F3D56"/>
<path d="M109.947 140.222L139.669 138.399L152.137 151.447L149.933 153.942L130.189 153.385L109.947 140.222Z" fill="#3F3D56"/>
</g>
<defs>
<filter id="filter0_d_122_215" x="0" y="0" width="200" height="200" filterUnits="userSpaceOnUse" color-interpolation-filters="sRGB">
<feFlood flood-opacity="0" result="BackgroundImageFix"/>
<feColorMatrix in="SourceAlpha" type="matrix" values="0 0 0 0 0 0 0 0 0 0 0 0 0 0 0 0 0 0 127 0" result="hardAlpha"/>
<feOffset/>
<feGaussianBlur stdDeviation="1"/>
<feComposite in2="hardAlpha" operator="out"/>
<feColorMatrix type="matrix" values="0 0 0 0 0 0 0 0 0 0 0 0 0 0 0 0 0 0 0.25 0"/>
<feBlend mode="normal" in2="BackgroundImageFix" result="effect1_dropShadow_122_215"/>
<feBlend mode="normal" in="SourceGraphic" in2="effect1_dropShadow_122_215" result="shape"/>
</filter>
<clipPath id="clip0_122_215">
<rect x="2" y="29" width="196" height="155" rx="77.5" fill="white"/>
</clipPath>
</defs>
</svg>
