<svg width="20" height="18" viewBox="0 0 20 18" fill="none" xmlns="http://www.w3.org/2000/svg">
<path d="M9.9999 14.0624C7.6296 14.0624 5.71085 11.9984 5.53429 9.38285L2.25618 6.53276C1.82524 7.14096 1.42868 7.78396 1.10868 8.48708C1.03719 8.64616 0.999946 8.82192 0.999946 9.00018C0.999946 9.17843 1.03719 9.35419 1.10868 9.51328C2.80336 13.2331 6.15835 15.7499 9.9999 15.7499C10.8408 15.7499 11.6521 15.6093 12.434 15.3822L10.8124 13.9707C10.5446 14.0289 10.2726 14.0596 9.9999 14.0624ZM19.8067 16.105L16.3521 13.1013C17.4015 12.1063 18.2646 10.8866 18.8911 9.51292C18.9626 9.35384 18.9999 9.17808 18.9999 8.99982C18.9999 8.82157 18.9626 8.64581 18.8911 8.48672C17.1964 4.76688 13.8415 2.25007 9.9999 2.25007C8.391 2.25226 6.80823 2.70793 5.39617 3.57545L1.42055 0.118568C1.36871 0.073184 1.30943 0.0397377 1.24609 0.02014C1.18275 0.000542203 1.1166 -0.00482287 1.05142 0.00435132C0.98624 0.0135255 0.923305 0.0370592 0.866212 0.0736074C0.809118 0.110156 0.758986 0.159002 0.71868 0.217356L0.105245 1.10574C0.0238694 1.22351 -0.0125943 1.37282 0.00387315 1.52083C0.0203406 1.66884 0.0883907 1.80342 0.193057 1.89499L18.5793 17.8814C18.6311 17.9268 18.6904 17.9603 18.7537 17.9799C18.8171 17.9995 18.8832 18.0048 18.9484 17.9956C19.0136 17.9865 19.0765 17.9629 19.1336 17.9264C19.1907 17.8898 19.2408 17.841 19.2811 17.7826L19.8949 16.8943C19.9762 16.7764 20.0126 16.6271 19.9961 16.4791C19.9796 16.3311 19.9115 16.1965 19.8067 16.105ZM14.0655 11.1129L12.8374 10.0448C12.9408 9.70856 12.9957 9.35581 12.9999 9C13.006 8.47908 12.9034 7.96381 12.7004 7.49559C12.4974 7.02736 12.1996 6.61923 11.8309 6.30397C11.4622 5.98871 11.033 5.77512 10.5776 5.68035C10.1223 5.58558 9.65349 5.61227 9.20897 5.75828C9.39741 6.04553 9.49934 6.39301 9.4999 6.75002C9.49524 6.86883 9.4791 6.98671 9.45178 7.10158L7.15147 5.10156C7.95053 4.35035 8.95857 3.93842 9.9999 3.93755C10.5909 3.93718 11.1762 4.06787 11.7224 4.32215C12.2685 4.57644 12.7647 4.94932 13.1826 5.41948C13.6005 5.88965 13.932 6.44788 14.158 7.06225C14.384 7.67662 14.5002 8.33509 14.4999 9C14.4999 9.76042 14.3346 10.4692 14.0655 11.1132V11.1129Z" fill="#727677"/>
</svg>
