<svg width="340" height="248" viewBox="0 0 340 248" fill="none" xmlns="http://www.w3.org/2000/svg">
<g clip-path="url(#clip0_122_3403)">
<path d="M167.641 246.952H154.58V145.238H165.202C165.716 145.238 166.21 145.444 166.575 145.811C166.939 146.178 167.146 146.677 167.148 147.197L167.641 246.952Z" fill="#CCCCCC"/>
<path d="M155.801 247.491H15.5435V175.053H155.801V247.491Z" fill="white"/>
<path d="M100.518 247.221H15.8097V175.322H155.535V191.552C155.518 206.311 149.716 220.461 139.402 230.898C129.088 241.334 115.104 247.205 100.518 247.221Z" fill="#F2F2F2"/>
<path d="M165.514 148.127C165.443 148.262 165.388 148.405 165.351 148.552L160.514 167.416L155.268 177.469H16.0759V174.965L24.0006 167.416L33.2451 149.523C33.6532 148.733 34.1891 148.018 34.8306 147.407C36.2944 146.014 38.2285 145.238 40.2384 145.238H163.793C164.128 145.238 164.458 145.325 164.75 145.492C165.042 145.659 165.287 145.9 165.46 146.191C165.633 146.481 165.729 146.812 165.738 147.152C165.748 147.491 165.67 147.827 165.514 148.127Z" fill="#F2F2F2"/>
<path d="M155.801 247.491H15.5435V175.053H155.801V247.491ZM16.6082 246.413H154.736V176.13H16.6082V246.413Z" fill="#E6E6E6"/>
<path d="M163.098 157.777L160.514 167.416H24.0007L28.4118 159.393L163.098 157.777Z" fill="#CCCCCC"/>
<path d="M43.0741 213.011H20.7157V214.263H43.0741V213.011Z" fill="white"/>
<path d="M43.0741 217.393H20.7157V218.645H43.0741V217.393Z" fill="white"/>
<path d="M43.0741 221.775H20.7157V223.027H43.0741V221.775Z" fill="white"/>
<path d="M29.3765 199.065C33.8181 199.065 37.4187 195.422 37.4187 190.927C37.4187 186.433 33.8181 182.79 29.3765 182.79C24.9349 182.79 21.3343 186.433 21.3343 190.927C21.3343 195.422 24.9349 199.065 29.3765 199.065Z" fill="white"/>
<path d="M117.521 161.949H110.691V108.757H116.245C116.514 108.757 116.773 108.865 116.963 109.057C117.154 109.249 117.262 109.51 117.263 109.782L117.521 161.949Z" fill="#CCCCCC"/>
<path d="M111.329 162.231H37.981V124.349H111.329V162.231Z" fill="white"/>
<path d="M82.4189 162.09H38.1202V124.49H111.19V132.977C111.181 140.696 108.147 148.096 102.753 153.553C97.3597 159.011 90.0467 162.081 82.4189 162.09Z" fill="#F2F2F2"/>
<path d="M116.408 110.268C116.372 110.339 116.343 110.413 116.323 110.491L113.794 120.355L111.051 125.613H38.2595V124.303L42.4037 120.355L47.2381 110.998C47.4516 110.585 47.7318 110.211 48.0673 109.892C48.8328 109.163 49.8442 108.757 50.8953 108.757H115.509C115.684 108.757 115.856 108.803 116.009 108.89C116.162 108.978 116.29 109.103 116.38 109.255C116.471 109.407 116.521 109.581 116.526 109.758C116.531 109.935 116.49 110.111 116.408 110.268Z" fill="#F2F2F2"/>
<path d="M111.329 162.231H37.981V124.349H111.329V162.231ZM38.5378 161.667H110.772V124.912H38.5378V161.667Z" fill="#E6E6E6"/>
<path d="M115.145 115.315L113.794 120.355H42.4037L44.7104 116.159L115.145 115.315Z" fill="#CCCCCC"/>
<path d="M52.3782 144.2H40.6858V144.854H52.3782V144.2Z" fill="white"/>
<path d="M52.3782 146.491H40.6858V147.146H52.3782V146.491Z" fill="white"/>
<path d="M52.3782 148.782H40.6858V149.437H52.3782V148.782Z" fill="white"/>
<path d="M45.215 136.906C47.5378 136.906 49.4207 135.001 49.4207 132.651C49.4207 130.3 47.5378 128.395 45.215 128.395C42.8923 128.395 41.0093 130.3 41.0093 132.651C41.0093 135.001 42.8923 136.906 45.215 136.906Z" fill="white"/>
<path d="M318.816 247.454L318.774 247.224C318.083 243.368 318.23 239.406 319.205 235.614C320.18 231.821 321.959 228.289 324.419 225.262C325.813 223.576 327.41 222.074 329.175 220.791L329.343 220.668L329.416 220.864C330.294 223.205 331.402 225.55 331.906 226.588L332.247 218.841L332.441 218.736C333.332 218.253 334.345 218.051 335.35 218.156C336.355 218.261 337.306 218.668 338.08 219.325C338.881 219.976 339.471 220.856 339.774 221.849C340.077 222.843 340.079 223.905 339.779 224.9C339.515 225.81 339.265 226.754 339.023 227.668C338.192 230.805 337.333 234.05 335.668 236.782C334.388 238.838 332.67 240.578 330.64 241.876C328.61 243.173 326.319 243.996 323.935 244.283L318.816 247.454Z" fill="#F2F2F2"/>
<path d="M340 247.359C340 247.443 339.984 247.527 339.952 247.605C339.92 247.682 339.874 247.753 339.815 247.813C339.756 247.872 339.686 247.92 339.609 247.952C339.532 247.984 339.45 248 339.366 248H0.633505C0.46549 248 0.304353 247.932 0.185548 247.812C0.0667431 247.692 0 247.529 0 247.359C0 247.189 0.0667431 247.026 0.185548 246.906C0.304353 246.785 0.46549 246.718 0.633505 246.718H339.366C339.45 246.718 339.532 246.734 339.609 246.766C339.686 246.798 339.756 246.846 339.815 246.905C339.874 246.965 339.92 247.035 339.952 247.113C339.984 247.191 340 247.275 340 247.359Z" fill="#CCCCCC"/>
<path d="M263.168 83.346L253.472 81.9407C250.193 87.489 249.027 102.257 249.027 102.257L239.539 125.077C238.91 125.509 238.405 126.101 238.075 126.793C237.744 127.485 237.6 128.253 237.656 129.02C237.712 129.786 237.966 130.525 238.394 131.16C238.822 131.795 239.407 132.305 240.091 132.639C240.776 132.973 241.535 133.118 242.292 133.06C243.05 133.003 243.779 132.744 244.406 132.311C245.034 131.877 245.537 131.284 245.866 130.592C246.195 129.899 246.338 129.13 246.28 128.364L261.86 101.802L263.168 83.346Z" fill="#FFB8B8"/>
<path d="M261.624 56.1091C263.125 56.3443 264.556 56.9112 265.816 57.7696C267.075 58.628 268.132 59.7568 268.912 61.0755C269.691 62.3943 270.174 63.8707 270.325 65.3997C270.477 66.9286 270.293 68.4726 269.788 69.9217L267.731 75.8227C267.731 75.8227 266.611 93.5908 262.339 98.6063L249.232 97.4058C249.232 97.4058 251.629 88.4415 249.789 84.1043C248.662 81.4481 248.725 72.2739 249.835 64.8109C250.043 63.4556 250.513 62.1551 251.219 60.984C251.924 59.8128 252.851 58.7939 253.946 57.9856C255.041 57.1774 256.283 56.5956 257.6 56.2736C258.918 55.9516 260.285 55.8957 261.624 56.1091Z" fill="#E6E6E6"/>
<path d="M293.667 240.474L287.826 240.474L285.048 217.678L293.668 217.679L293.667 240.474Z" fill="#FFB6B6"/>
<path d="M293.872 246.639L275.912 246.638V246.409C275.912 244.533 276.649 242.734 277.96 241.407C279.271 240.081 281.049 239.335 282.903 239.335L286.184 236.817L292.305 239.336L293.873 239.336L293.872 246.639Z" fill="#2F2E41"/>
<path d="M268.275 212.223L262.88 214.486L251.684 194.507L259.647 191.167L268.275 212.223Z" fill="#FFB6B6"/>
<path d="M270.799 217.838L254.209 224.799L254.122 224.587C253.412 222.854 253.411 220.907 254.12 219.173C254.829 217.44 256.189 216.062 257.901 215.343L259.979 211.745L266.586 211.699L268.035 211.092L270.799 217.838Z" fill="#2F2E41"/>
<path d="M300.345 110.803L258.896 115.184L253.352 134.08L234.151 165.303L255.351 204.716L262.817 197.935L255.651 166.109L277.041 142.742L281.097 141.039L284.317 227.748L296.226 227.946L301.438 132.267C303.942 123.815 303.188 116.836 300.345 110.803Z" fill="#2F2E41"/>
<path d="M285.148 50.9843L278.345 43.233L267.595 44.4416L260.713 54.1878C257.049 55.04 253.848 57.2805 251.767 60.4483C249.687 63.6161 248.885 67.4704 249.527 71.2181C252.198 86.7797 261.275 101.873 258.278 109.551C253.728 121.206 253.451 125.959 264.341 124.325C275.231 122.691 311.715 118.924 304.641 111.767C297.568 104.61 296.014 92.6494 296.014 92.6494L295.731 65.2864C296.031 63.6361 295.991 61.9406 295.613 60.3067C295.235 58.6728 294.526 57.1358 293.532 55.7924C292.538 54.4491 291.28 53.3284 289.837 52.5009C288.394 51.6734 286.798 51.1571 285.148 50.9843Z" fill="#E6E6E6"/>
<path d="M271.854 41.2494C278.444 41.2494 283.787 35.8434 283.787 29.1748C283.787 22.5062 278.444 17.1002 271.854 17.1002C265.263 17.1002 259.921 22.5062 259.921 29.1748C259.921 35.8434 265.263 41.2494 271.854 41.2494Z" fill="#FFB8B8"/>
<path d="M286.557 28.4578C286.024 30.9043 285.063 33.2345 283.719 35.3383C283.362 36.0557 282.829 36.6681 282.171 37.1169C281.837 37.3333 281.44 37.4246 281.047 37.3749C280.654 37.3252 280.291 37.1377 280.02 36.8449L279.73 36.6056C280.3 36.2506 280.808 35.8042 281.235 35.2839C281.447 35.0228 281.594 34.7143 281.664 34.3842C281.734 34.054 281.725 33.7117 281.638 33.3856C281.535 33.0641 281.313 32.7955 281.018 32.6363C280.724 32.477 280.38 32.4395 280.058 32.5317C279.359 32.8091 278.935 33.8317 278.204 33.674C277.612 33.5434 277.489 32.7547 277.489 32.1347C277.51 28.8929 275.962 24.286 274.763 24.4274C273.552 24.4944 272.34 24.3302 271.189 23.9433C270.036 23.5558 268.82 23.3988 267.609 23.481C267.523 23.4918 267.437 23.5082 267.345 23.5245C267.151 22.9086 266.884 22.3187 266.55 21.7676C266.588 22.4328 266.555 23.1002 266.453 23.7584C265.489 24.1605 264.493 24.4789 263.475 24.7102C262.368 24.868 259.933 28.2185 259.82 27.8758C259.626 27.2599 259.359 26.67 259.024 26.1189C259.062 26.7841 259.03 27.4515 258.928 28.1097C258.922 28.1369 258.922 28.1586 258.917 28.1858C258.379 27.4624 258.051 26.5813 258.234 27.2557C256.433 23.1329 257.132 20.1794 259.965 16.7038C260.517 15.9565 261.248 15.3632 262.088 14.9796C262.509 14.7925 262.971 14.7182 263.428 14.7639C263.886 14.8097 264.324 14.9738 264.701 15.2407C265.856 14.1688 267.274 13.4291 268.807 13.0982C270.34 12.7673 271.932 12.8572 273.42 13.3587C276.371 14.3976 278.644 15.0068 279.096 18.1397C281.536 17.7427 284.047 19.146 285.39 21.24C286.729 23.3396 287.003 26.0047 286.557 28.4578Z" fill="#2F2E41"/>
<path d="M276.88 128.749H272.92V97.9045H276.141C276.297 97.9045 276.446 97.967 276.557 98.0784C276.668 98.1897 276.73 98.3408 276.731 98.4987L276.88 128.749Z" fill="#FFCB06"/>
<path d="M273.29 128.912H230.758V106.946H273.29V128.912Z" fill="white"/>
<path d="M256.526 128.83H230.839V107.027H273.209V111.949C273.204 116.425 271.445 120.716 268.317 123.88C265.19 127.045 260.949 128.825 256.526 128.83Z" fill="#149F4C"/>
<path d="M276.235 98.7807C276.214 98.8216 276.197 98.8649 276.186 98.9097L274.719 104.63L273.128 107.678H230.919V106.919L233.322 104.63L236.126 99.2041C236.25 98.9646 236.412 98.7478 236.607 98.5625C237.05 98.1399 237.637 97.9046 238.246 97.9046H275.713C275.815 97.9046 275.915 97.9312 276.004 97.9818C276.092 98.0325 276.166 98.1054 276.219 98.1935C276.271 98.2817 276.3 98.3821 276.303 98.4849C276.306 98.5878 276.283 98.6897 276.235 98.7807Z" fill="#FFCB06"/>
<path d="M273.29 128.912H230.758V106.946H273.29V128.912ZM231.081 128.585H272.967V107.272H231.081V128.585Z" fill="#FFCB06"/>
<path d="M275.502 101.707L274.719 104.63H233.323L234.66 102.197L275.502 101.707Z" fill="#149F4C"/>
<path d="M239.106 118.456H232.326V118.836H239.106V118.456Z" fill="white"/>
<path d="M239.106 119.785H232.326V120.165H239.106V119.785Z" fill="white"/>
<path d="M239.106 121.114H232.326V121.493H239.106V121.114Z" fill="white"/>
<path d="M234.953 114.227C236.3 114.227 237.391 113.122 237.391 111.76C237.391 110.397 236.3 109.292 234.953 109.292C233.606 109.292 232.514 110.397 232.514 111.76C232.514 113.122 233.606 114.227 234.953 114.227Z" fill="white"/>
<path d="M293.427 80.5259L283.731 79.1207C280.452 84.669 279.286 99.4367 279.286 99.4367L269.798 122.257C269.169 122.689 268.664 123.281 268.334 123.973C268.003 124.665 267.859 125.433 267.915 126.2C267.971 126.966 268.225 127.705 268.653 128.34C269.081 128.975 269.666 129.485 270.35 129.819C271.035 130.153 271.794 130.298 272.551 130.24C273.309 130.183 274.038 129.924 274.666 129.491C275.293 129.057 275.796 128.464 276.125 127.772C276.454 127.079 276.597 126.31 276.539 125.544L292.119 98.9815L293.427 80.5259Z" fill="#FFB8B8"/>
<path d="M288.172 53.289C289.672 53.5242 291.103 54.0911 292.363 54.9495C293.622 55.8079 294.679 56.9367 295.459 58.2554C296.238 59.5742 296.721 61.0506 296.872 62.5796C297.024 64.1085 296.841 65.6525 296.335 67.1015L294.278 73.0026C294.278 73.0026 296.869 90.7707 292.598 95.7862L279.491 94.5857C279.491 94.5857 281.888 85.6214 280.048 81.2842C278.921 78.6279 278.984 69.4538 280.094 61.9907C280.942 56.2921 282.543 52.407 288.172 53.289Z" fill="#E6E6E6"/>
<path d="M205.842 23.8901C201.105 26.2807 197.5 30.4775 195.821 35.5573C194.142 40.637 194.526 46.1837 196.888 50.977C201.808 60.9586 219.586 77.9822 233.77 80.5543C227.669 61.8085 236.152 42.7541 232.611 32.9498C228.827 22.4735 215.706 18.9121 205.842 23.8901Z" fill="#149F4C"/>
<path d="M212.491 47.6297C216.086 47.6297 219 44.6807 219 41.043C219 37.4053 216.086 34.4564 212.491 34.4564C208.896 34.4564 205.982 37.4053 205.982 41.043C205.982 44.6807 208.896 47.6297 212.491 47.6297Z" fill="white"/>
<path d="M233.645 91.1264C236 91.1264 237.909 89.1949 237.909 86.8123C237.909 84.4297 236 82.4982 233.645 82.4982C231.29 82.4982 229.381 84.4297 229.381 86.8123C229.381 89.1949 231.29 91.1264 233.645 91.1264Z" fill="#149F4C"/>
<path opacity="0.2" d="M214.475 34.1192C215.33 34.0892 216.182 34.2299 216.983 34.5333C217.784 34.8367 218.518 35.2968 219.143 35.8874C219.768 36.478 220.272 37.1875 220.626 37.9753C220.98 38.7631 221.177 39.6138 221.206 40.4787C221.235 41.3436 221.096 42.2058 220.795 43.0161C220.494 43.8263 220.039 44.5687 219.455 45.2008C218.871 45.8328 218.169 46.3422 217.39 46.6998C216.611 47.0574 215.771 47.2561 214.916 47.2847C216.364 46.7395 217.574 45.6904 218.328 44.3253C219.082 42.9601 219.332 41.3679 219.032 39.8337C218.732 38.2994 217.902 36.9234 216.691 35.9517C215.479 34.98 213.966 34.4762 212.421 34.5304C213.079 34.2821 213.773 34.1433 214.475 34.1192Z" fill="#231F20"/>
<path opacity="0.2" d="M232.644 32.9537C236.185 42.758 227.701 61.8123 233.803 80.5582C232.464 80.3088 231.145 79.9595 229.857 79.5132C224.886 61.3917 232.689 43.2841 229.267 33.8114C226.204 25.3331 217.027 21.3846 208.41 22.8251C217.868 19.5611 229.176 23.3532 232.644 32.9537Z" fill="#231F20"/>
<path d="M32.8253 123.917C27.9217 123.798 23.1721 125.655 19.6215 129.079C16.0708 132.503 14.0099 137.215 13.8922 142.176C13.647 152.509 20.9175 174.247 31.4333 182.573C34.464 164.544 49.5723 152.658 50.8704 143.075C52.2575 132.835 43.0365 124.165 32.8253 123.917Z" fill="#D1D3D4"/>
<path d="M30.9256 146.985C34.2568 146.985 36.9572 144.252 36.9572 140.881C36.9572 137.511 34.2568 134.778 30.9256 134.778C27.5944 134.778 24.8939 137.511 24.8939 140.881C24.8939 144.252 27.5944 146.985 30.9256 146.985Z" fill="white"/>
<path d="M28.6509 191.641C30.8328 191.641 32.6015 189.851 32.6015 187.644C32.6015 185.436 30.8328 183.646 28.6509 183.646C26.4691 183.646 24.7003 185.436 24.7003 187.644C24.7003 189.851 26.4691 191.641 28.6509 191.641Z" fill="#D1D3D4"/>
<path opacity="0.2" d="M35.5156 136.08C36.9541 136.789 38.0557 138.046 38.578 139.576C39.1004 141.106 39.0007 142.783 38.3009 144.238C37.9544 144.959 37.4711 145.604 36.8784 146.135C36.2857 146.667 35.5953 147.075 34.8467 147.337C33.3347 147.866 31.6771 147.765 30.2386 147.057C31.6586 147.245 33.0986 146.917 34.3009 146.129C35.5032 145.342 36.3893 144.147 36.8005 142.759C37.2118 141.371 37.1214 139.88 36.5456 138.553C35.9698 137.226 34.946 136.15 33.6577 135.517C34.303 135.602 34.9304 135.792 35.5156 136.08Z" fill="#231F20"/>
<path opacity="0.2" d="M50.8956 143.092C49.5975 152.675 34.4892 164.562 31.4586 182.591C30.4688 181.799 29.5383 180.935 28.6746 180.005C32.3635 162.983 46.5084 151.573 47.7627 142.314C48.8852 134.027 43.0597 126.77 35.3847 124.171C44.529 125.645 52.1668 133.709 50.8956 143.092Z" fill="#231F20"/>
<path d="M102.991 44.3948C101.612 44.486 100.324 45.1178 99.399 46.1557C98.4742 47.1937 97.9861 48.5558 98.0386 49.9523C98.0537 50.236 98.092 50.5179 98.1531 50.7952L82.5031 60.7717L91.1552 64.6437L104.69 54.5763C105.807 54.231 106.779 53.5214 107.456 52.5582C108.132 51.5949 108.474 50.4322 108.429 49.2516C108.396 48.58 108.234 47.9214 107.95 47.3135C107.666 46.7055 107.267 46.1601 106.775 45.7082C106.283 45.2564 105.708 44.9071 105.082 44.6803C104.457 44.4534 103.793 44.3534 103.129 44.386C103.083 44.3883 103.037 44.3912 102.991 44.3948Z" fill="#FFB6B6"/>
<path d="M87.899 56.2372L91.7777 64.335L76.4418 74.3209C75.3506 75.0375 74.0964 75.4599 72.7984 75.5479C71.5004 75.6359 70.2018 75.3866 69.0258 74.8236C67.5962 74.1312 66.4276 72.9873 65.6964 71.5643C64.9652 70.1414 64.7109 68.5165 64.9718 66.9346L69.948 38.1882C70.2821 36.1765 71.3653 34.3709 72.9748 33.1426C74.5843 31.9144 76.5977 31.3569 78.601 31.5848C79.5768 31.6928 80.522 31.9942 81.3827 32.4717C82.2433 32.9493 83.0026 33.5938 83.6171 34.3683C84.2316 35.1428 84.6894 36.0321 84.9642 36.9856C85.239 37.9391 85.3256 38.9381 85.2189 39.9254C85.2104 40.0034 85.2008 40.0813 85.19 40.159C85.1524 40.4352 85.1001 40.7092 85.0333 40.9797L79.6008 61.4236L87.899 56.2372Z" fill="#149F4C"/>
<path d="M88.989 68.7906H67.0569V90.9831H88.989V68.7906Z" fill="#FFB8B8"/>
<path d="M141.001 134.149L149.377 131.298L154.042 154.368L148.366 156.3L141.001 134.149Z" fill="#FFB6B6"/>
<path d="M126.805 132.376L135.113 129.328L140.307 152.282L134.677 154.347L126.805 132.376Z" fill="#FFB6B6"/>
<path d="M67.8436 96.7808C63.4477 126.434 121.987 108.903 121.987 108.903L140.341 134.523L151.086 132.546C151.086 132.546 146.251 117.166 137.616 96.5471C133.782 87.3905 90.2386 89.6279 90.2386 89.6279L89.3345 82.4482L64.4246 81.954L67.8436 96.7808Z" fill="#2F2E41"/>
<path d="M110.129 110.891L123.665 102.36C133.575 122.383 136.496 131.055 136.496 131.055L127.128 133.72L110.129 110.891Z" fill="#2F2E41"/>
<path d="M80.3729 32.728L75.9584 26.9862L69.6612 26.7099L69.0327 32.1101L65.9125 33.566C62.7969 45.5428 62.3158 58.0654 64.5029 70.2508C64.9211 70.6492 65.2266 71.1533 65.388 71.7111C65.5495 72.2688 65.5609 72.86 65.4211 73.4238L65.2188 74.2398L65.2376 74.2697C65.9015 75.3297 66.1268 76.6115 65.8647 77.8382L64.3746 80.5174C63.8399 81.4809 63.519 82.5506 63.4342 83.6523C63.3494 84.754 63.5028 85.8612 63.8837 86.8968C64.2646 87.9324 64.8639 88.8717 65.6399 89.6492C66.4158 90.4268 67.3499 91.0239 68.377 91.3992C77.5364 94.7587 86.1227 96.01 92.4747 86.583L94.4721 53.7315L80.3729 32.728Z" fill="#149F4C"/>
<path d="M75.7483 28.511C82.1786 28.511 87.3913 23.2363 87.3913 16.7297C87.3913 10.2231 82.1786 4.94843 75.7483 4.94843C69.318 4.94843 64.1052 10.2231 64.1052 16.7297C64.1052 23.2363 69.318 28.511 75.7483 28.511Z" fill="#FFB8B8"/>
<path d="M69.9033 2.52754C64.9735 2.62337 61.0635 7.25044 61.17 12.8624C57.5219 16.7142 56.6381 35.6599 59.6864 40.7C65.2626 41.355 68.6544 27.3954 73.5446 29.4134L74.1889 26.3669L75.6492 30.3342C76.892 30.914 78.1254 31.5503 79.3494 32.2433C80.229 28.1607 80.0109 24.1924 77.6467 20.7358C75.5464 17.6651 80.6577 14.0195 84.3131 14.5348L84.2595 11.7144L85.1777 14.518C86.6026 15.5774 88.1788 15.1939 89.7951 14.4282C92.4161 0.644488 72.1237 -3.12492 69.9033 2.52754Z" fill="#2F2E41"/>
<path d="M145.786 160.202L149.518 159.709L149.724 156.055L151.89 159.395L161.787 158.087C162.262 158.024 162.704 157.81 163.05 157.475C163.395 157.14 163.626 156.702 163.708 156.225C163.79 155.748 163.719 155.257 163.506 154.823C163.292 154.39 162.948 154.037 162.522 153.816L153.905 149.337L153.44 145.733L145.191 147.334L145.786 160.202Z" fill="#2F2E41"/>
<path d="M135.929 160.235L139.315 158.571L138.367 155.04L141.467 157.514L150.446 153.102C150.876 152.891 151.229 152.546 151.451 152.117C151.674 151.689 151.756 151.199 151.685 150.721C151.613 150.242 151.392 149.799 151.054 149.456C150.716 149.113 150.279 148.889 149.806 148.815L140.231 147.328L138.662 144.058L131.338 148.219L135.929 160.235Z" fill="#2F2E41"/>
<path d="M84.8218 81.6718H88.9731V49.3419H85.5969C85.4334 49.3419 85.2765 49.4074 85.1606 49.5241C85.0447 49.6408 84.9792 49.7992 84.9783 49.9647L84.8218 81.6718Z" fill="#CCCCCC"/>
<path d="M88.5851 58.8185H133.166V81.8429H88.5851V58.8185Z" fill="white"/>
<path d="M88.6697 64.0629V58.9041H133.081V81.7573H106.157C101.52 81.752 97.0756 79.8861 93.7973 76.5689C90.519 73.2517 88.675 68.7541 88.6697 64.0629Z" fill="#F2F2F2"/>
<path d="M85.4979 50.2602C85.5203 50.3031 85.5377 50.3485 85.5497 50.3954L87.087 56.3912L88.7544 59.5866H132.997V58.7908L130.478 56.3912L127.539 50.7041C127.41 50.453 127.239 50.2257 127.035 50.0316C126.57 49.5886 125.955 49.3419 125.317 49.3419H86.0448C85.9382 49.3419 85.8334 49.3698 85.7406 49.4229C85.6478 49.4759 85.5701 49.5524 85.515 49.6448C85.46 49.7372 85.4295 49.8424 85.4265 49.9502C85.4235 50.0581 85.4481 50.1648 85.4979 50.2602Z" fill="#F2F2F2"/>
<path d="M88.5851 58.8185H133.166V81.8429H88.5851V58.8185ZM132.827 81.5005H88.9236V59.1609H132.827L132.827 81.5005Z" fill="#E6E6E6"/>
<path d="M86.2657 53.3272L87.0871 56.3912H130.478L129.076 53.8411L86.2657 53.3272Z" fill="#CCCCCC"/>
<path d="M131.522 70.8837H124.415V71.2816H131.522V70.8837Z" fill="white"/>
<path d="M131.522 72.2764H124.415V72.6744H131.522V72.2764Z" fill="white"/>
<path d="M131.522 73.6692H124.415V74.0671H131.522V73.6692Z" fill="white"/>
<path d="M128.769 66.4509C130.181 66.4509 131.325 65.2928 131.325 63.8643C131.325 62.4358 130.181 61.2778 128.769 61.2778C127.357 61.2778 126.213 62.4358 126.213 63.8643C126.213 65.2928 127.357 66.4509 128.769 66.4509Z" fill="white"/>
<path d="M108.148 24.7819C111.153 24.7089 114.063 25.8466 116.239 27.9448C118.414 30.0431 119.677 32.9299 119.749 35.9702C119.9 42.3013 115.445 55.6212 109.001 60.723C107.144 49.6759 97.8865 42.3926 97.091 36.5207C96.2412 30.2464 101.891 24.9339 108.148 24.7819Z" fill="#D1D3D4"/>
<path d="M109.312 38.9165C111.353 38.9165 113.008 37.2421 113.008 35.1767C113.008 33.1113 111.353 31.437 109.312 31.437C107.271 31.437 105.616 33.1113 105.616 35.1767C105.616 37.2421 107.271 38.9165 109.312 38.9165Z" fill="white"/>
<path d="M110.706 66.2794C112.043 66.2794 113.127 65.1828 113.127 63.83C113.127 62.4772 112.043 61.3806 110.706 61.3806C109.369 61.3806 108.285 62.4772 108.285 63.83C108.285 65.1828 109.369 66.2794 110.706 66.2794Z" fill="#D1D3D4"/>
<path opacity="0.2" d="M106.5 32.2349C106.063 32.4498 105.673 32.7495 105.351 33.1169C105.029 33.4844 104.782 33.9125 104.623 34.3767C104.465 34.8408 104.398 35.332 104.427 35.8223C104.456 36.3125 104.581 36.7921 104.793 37.2337C105.005 37.6753 105.302 38.0703 105.665 38.3961C106.028 38.7219 106.451 38.9721 106.91 39.1325C107.368 39.2928 107.854 39.3602 108.338 39.3307C108.823 39.3012 109.297 39.1755 109.733 38.9606C108.863 39.0763 107.981 38.8748 107.244 38.3922C106.507 37.9097 105.964 37.1776 105.712 36.3271C105.46 35.4765 105.516 34.5629 105.869 33.7499C106.221 32.9368 106.849 32.2774 107.638 31.8896C107.243 31.9418 106.858 32.0584 106.5 32.2349Z" fill="#231F20"/>
<path opacity="0.2" d="M97.0756 36.5314C97.871 42.4033 107.129 49.6866 108.986 60.7337C109.592 60.2488 110.162 59.7192 110.691 59.1492C108.431 48.7191 99.7639 41.7279 98.9953 36.0546C98.3075 30.9769 101.877 26.5297 106.58 24.9373C100.977 25.8404 96.2967 30.7816 97.0756 36.5314Z" fill="#231F20"/>
<path d="M101.564 55.8798C100.187 55.7766 98.8242 56.2212 97.7659 57.1192C96.7077 58.0172 96.0375 59.2976 95.8979 60.6879C95.8739 60.971 95.8732 61.2555 95.8956 61.5387L79.0284 69.2203L87.0656 74.2702L101.851 66.2015C103.004 66.0164 104.064 65.4503 104.866 64.5913C105.668 63.7324 106.166 62.6291 106.283 61.4534C106.405 60.1011 105.991 58.7553 105.132 57.7121C104.273 56.6689 103.039 56.0136 101.703 55.8906C101.657 55.8863 101.611 55.8827 101.564 55.8798Z" fill="#FFB6B6"/>
<path d="M84.9943 65.4878L87.7245 74.0519L71.1671 81.787C69.9881 82.3434 68.6881 82.5855 67.3906 82.4903C66.0931 82.3952 64.8413 81.9658 63.754 81.2431C62.4331 80.3566 61.4329 79.0596 60.9039 77.5478C60.375 76.0359 60.3461 74.391 60.8215 72.861L69.6932 45.0919C70.3 43.1467 71.6204 41.5107 73.3829 40.5204C75.1453 39.5301 77.2157 39.2608 79.1684 39.768C80.1199 40.0119 81.0146 40.4432 81.8014 41.037C82.5882 41.6309 83.2517 42.3757 83.754 43.229C84.2563 44.0824 84.5876 45.0274 84.729 46.0103C84.8703 46.9932 84.819 47.9946 84.5779 48.9574C84.5588 49.0335 84.5386 49.1092 84.5172 49.1847C84.4421 49.4529 84.3527 49.7169 84.2495 49.9754L76.0649 69.4583L84.9943 65.4878Z" fill="#149F4C"/>
</g>
<defs>
<clipPath id="clip0_122_3403">
<rect width="340" height="248" fill="white"/>
</clipPath>
</defs>
</svg>
